<?xml version="1.0" encoding="UTF-8" standalone="no" ?>
<!DOCTYPE svg PUBLIC "-//W3C//DTD SVG 1.1//EN" "http://www.w3.org/Graphics/SVG/1.1/DTD/svg11.dtd">
<svg xmlns="http://www.w3.org/2000/svg" xmlns:xlink="http://www.w3.org/1999/xlink" version="1.1" width="1280" height="1024" viewBox="0 0 1280 1024" xml:space="preserve">
<desc>Created with Fabric.js 5.3.0</desc>
<defs>
</defs>
<g transform="matrix(1 0 0 1 640 512)" id="background-logo"  >
<rect style="stroke: none; stroke-width: 0; stroke-dasharray: none; stroke-linecap: butt; stroke-dashoffset: 0; stroke-linejoin: miter; stroke-miterlimit: 4; fill: rgb(44,52,84); fill-rule: nonzero; opacity: 1;"  paint-order="stroke"  x="-640" y="-512" rx="0" ry="0" width="1280" height="1024" />
</g>
<g transform="matrix(2.2421463781694837 0 0 2.2421463781694837 640.0000000000001 521.4144049049318)" id="logo-logo"  >
<g style=""  paint-order="stroke"   >
		<g transform="matrix(0.045615684645527343 0 0 0.045615684645527343 -1.7160620563647626 3.027969146770033)"  >
<path style="stroke: none; stroke-width: 1; stroke-dasharray: none; stroke-linecap: butt; stroke-dashoffset: 0; stroke-linejoin: miter; stroke-miterlimit: 4; fill: rgb(127,127,127); fill-rule: evenodd; opacity: 1;"  paint-order="stroke"  transform=" translate(-2265.31, -1780.9099999999996)" d="M 3511.39 966.61 C 3303.3599999999997 863.05 3095.3199999999997 759.48 2887.29 655.9200000000001 L 2887.29 890.21 C 3095.32 978.77 3303.36 1067.33 3511.39 1155.89 L 3511.39 966.6100000000001 z M 1075.6299999999997 3036.82 L 902.2799999999996 3036.82 C 891.9399999999996 3036.82 883.5599999999996 3028.44 883.5599999999996 3018.1000000000004 L 883.5599999999996 2844.7500000000005 C 883.5599999999996 2834.4100000000003 891.9399999999996 2826.0300000000007 902.2799999999996 2826.0300000000007 L 1075.6299999999997 2826.0300000000007 C 1085.9699999999996 2826.0300000000007 1094.3499999999997 2834.4100000000008 1094.3499999999997 2844.7500000000005 L 1094.3499999999997 3018.1000000000004 C 1094.3499999999997 3028.4400000000005 1085.9699999999996 3036.82 1075.6299999999997 3036.82 z M 1075.6299999999997 2774.33 L 902.2799999999996 2774.33 C 891.9399999999996 2774.33 883.5599999999996 2765.95 883.5599999999996 2755.61 L 883.5599999999996 2582.26 C 883.5599999999996 2571.92 891.9399999999996 2563.5400000000004 902.2799999999996 2563.5400000000004 L 1075.6299999999997 2563.5400000000004 C 1085.9699999999996 2563.5400000000004 1094.3499999999997 2571.9200000000005 1094.3499999999997 2582.26 L 1094.3499999999997 2755.61 C 1094.3499999999997 2765.9500000000003 1085.9699999999996 2774.33 1075.6299999999997 2774.33 z M 1338.1199999999997 3036.8199999999997 L 1164.7699999999998 3036.8199999999997 C 1154.4299999999998 3036.8199999999997 1146.0499999999997 3028.4399999999996 1146.0499999999997 3018.1 L 1146.0499999999997 2844.75 C 1146.0499999999997 2834.41 1154.4299999999998 2826.03 1164.7699999999998 2826.03 L 1338.1199999999997 2826.03 C 1348.4599999999996 2826.03 1356.8399999999997 2834.4100000000003 1356.8399999999997 2844.75 L 1356.8399999999997 3018.1 C 1356.8399999999997 3028.44 1348.4599999999996 3036.8199999999997 1338.1199999999997 3036.8199999999997 z M 1338.1199999999997 2774.33 L 1164.7699999999998 2774.33 C 1154.4299999999998 2774.33 1146.0499999999997 2765.95 1146.0499999999997 2755.61 L 1146.0499999999997 2582.26 C 1146.0499999999997 2571.92 1154.4299999999998 2563.5400000000004 1164.7699999999998 2563.5400000000004 L 1338.1199999999997 2563.5400000000004 C 1348.4599999999996 2563.5400000000004 1356.8399999999997 2571.9200000000005 1356.8399999999997 2582.26 L 1356.8399999999997 2755.61 C 1356.8399999999997 2765.9500000000003 1348.4599999999996 2774.33 1338.1199999999997 2774.33 z M 3647.0599999999995 2273.2 C 3348.5799999999995 2273.2 3050.0899999999992 2273.2 2751.6099999999997 2273.2 C 2751.6099999999997 1639.2499999999998 2751.6099999999997 1005.3099999999997 2751.6099999999997 371.3599999999999 C 2717.2899999999995 403.9599999999999 2682.9599999999996 436.5499999999999 2648.64 469.1399999999999 C 2614.3199999999997 501.7399999999999 2579.99 534.3299999999999 2545.67 566.9199999999998 C 2511.35 599.5199999999999 2477.02 632.1099999999999 2442.7000000000003 664.6999999999998 C 2408.38 697.2999999999998 2374.05 729.8899999999999 2339.7300000000005 762.4799999999998 C 2305.4100000000003 795.0799999999998 2271.0800000000004 827.6699999999998 2236.7600000000007 860.2599999999998 C 2224.790000000001 871.6199999999998 2212.8200000000006 882.9899999999998 2200.850000000001 894.3599999999998 C 2200.850000000001 1513.7799999999997 2200.850000000001 2133.1899999999996 2200.850000000001 2752.6099999999997 C 2298.5900000000006 2752.6099999999997 2396.330000000001 2752.6099999999997 2494.0700000000006 2752.6099999999997 C 2494.0700000000006 2592.7999999999997 2494.0700000000006 2432.99 2494.0700000000006 2273.1899999999996 C 2579.9200000000005 2273.1899999999996 2665.7600000000007 2273.1899999999996 2751.6100000000006 2273.1899999999996 C 2751.6100000000006 2467.3399999999997 2751.6100000000006 2661.4799999999996 2751.6100000000006 2855.6299999999997 C 2875.1000000000004 2855.6299999999997 2998.5800000000004 2855.6299999999997 3122.0600000000004 2855.6299999999997 C 3122.0600000000004 2754.5899999999997 3122.0600000000004 2653.5599999999995 3122.0600000000004 2552.5199999999995 C 3297.0600000000004 2552.5199999999995 3472.0600000000004 2552.5199999999995 3647.0600000000004 2552.5199999999995 C 3647.0600000000004 2546.4299999999994 3647.0600000000004 2540.3399999999997 3647.0600000000004 2534.2599999999993 C 3647.0600000000004 2482.859999999999 3647.0600000000004 2431.4499999999994 3647.0600000000004 2380.0499999999993 C 3647.0600000000004 2344.4299999999994 3647.0600000000004 2308.8099999999995 3647.0600000000004 2273.189999999999 z M 1489.1899999999996 1011.7199999999998 L 1489.1899999999996 3190.4599999999996 L 1665.4599999999996 3190.4599999999996 L 1665.4599999999996 1011.7199999999998 L 1489.1899999999996 1011.7199999999998 z M 905.0499999999996 2295.25 C 976.7599999999996 2227.15 1048.4799999999996 2159.05 1120.1899999999996 2090.95 C 1192.8299999999997 2153.68 1265.4699999999996 2216.4199999999996 1338.1099999999997 2279.1499999999996 C 1338.1099999999997 1817.5599999999997 1338.1099999999997 1355.9599999999996 1338.1099999999997 894.3699999999997 C 1307.2999999999997 923.6299999999997 1276.4899999999998 952.8799999999997 1245.6899999999996 982.1399999999996 C 1211.3699999999997 1014.7399999999997 1177.0399999999995 1047.3299999999997 1142.7199999999996 1079.9199999999996 C 1108.3999999999996 1112.5199999999995 1074.0699999999995 1145.1099999999997 1039.7499999999995 1177.6999999999996 C 1005.4299999999995 1210.2999999999995 971.0999999999996 1242.8899999999996 936.7799999999995 1275.4799999999996 C 926.2099999999995 1285.5199999999995 915.6299999999995 1295.5699999999995 905.0599999999995 1305.6099999999997 C 905.0599999999995 1357.7399999999998 905.0599999999995 1409.8699999999997 905.0599999999995 1461.9899999999998 C 905.0599999999995 1537.3299999999997 905.0599999999995 1612.6699999999998 905.0599999999995 1688.0099999999998 C 905.0599999999995 1763.3499999999997 905.0599999999995 1838.6899999999998 905.0599999999995 1914.0299999999997 C 905.0599999999995 1952.0399999999997 905.0599999999995 1990.0399999999997 905.0599999999995 2028.0499999999997 C 905.0599999999995 2117.1099999999997 905.0599999999995 2206.1699999999996 905.0599999999995 2295.24 z M 3511.3799999999997 1995.84 C 3303.3499999999995 1973.85 3095.3099999999995 1951.87 2887.2799999999997 1929.8899999999999 L 2887.2799999999997 2124.1499999999996 C 3095.31 2133.6899999999996 3303.35 2143.24 3511.3799999999997 2152.7899999999995 L 3511.3799999999997 1995.8499999999995 z M 3511.3799999999997 1674.82 C 3303.3499999999995 1627.3899999999999 3095.3099999999995 1579.96 2887.2799999999997 1532.53 L 2887.2799999999997 1733.17 C 3095.31 1767.75 3303.35 1802.3300000000002 3511.3799999999997 1836.91 L 3511.3799999999997 1674.8100000000002 z M 3511.3799999999997 1335.82 C 3303.3499999999995 1261.52 3095.3099999999995 1187.22 2887.2799999999997 1112.9199999999998 L 2887.2799999999997 1326.36 C 3095.31 1386.99 3303.35 1447.62 3511.3799999999997 1508.25 L 3511.3799999999997 1335.81 z" stroke-linecap="round" />
</g>
		<g transform="matrix(0.045615684645527343 0 0 0.045615684645527343 0 0)"  >
<path style="stroke: none; stroke-width: 1; stroke-dasharray: none; stroke-linecap: butt; stroke-dashoffset: 0; stroke-linejoin: miter; stroke-miterlimit: 4; fill: rgb(188,188,188); fill-rule: nonzero; opacity: 1;"  paint-order="stroke"  transform=" translate(-2302.9300000000003, -1714.5300000000002)" d="M 18.72 3429.08 C 8.379999999999999 3429.08 0 3420.7 0 3410.36 C 0 3400.02 8.38 3391.6400000000003 18.72 3391.6400000000003 L 182.26 3391.6400000000003 L 182.26 2740.2100000000005 L 57.53999999999999 2858.6500000000005 C 50.06999999999999 2865.7600000000007 38.24999999999999 2865.4600000000005 31.139999999999993 2857.9900000000007 C 24.029999999999994 2850.520000000001 24.329999999999995 2838.7000000000007 31.799999999999994 2831.5900000000006 L 182.26 2688.7100000000005 L 182.26 2324.7200000000003 C 182.26 2314.38 190.64 2306.0000000000005 200.98 2306.0000000000005 C 211.32 2306.0000000000005 219.7 2314.3800000000006 219.7 2324.7200000000003 L 219.7 2653.1600000000003 L 704.14 2193.1200000000003 L 704.14 1289.8800000000003 L 522.88 1462.0100000000002 C 515.41 1469.1200000000001 503.59 1468.8200000000002 496.48 1461.3500000000001 C 489.37 1453.88 489.67 1442.0600000000002 497.14000000000004 1434.95 L 704.1400000000001 1238.38 L 704.1400000000001 799.7400000000001 C 704.1400000000001 789.4000000000001 712.5200000000001 781.0200000000001 722.8600000000001 781.0200000000001 C 733.2000000000002 781.0200000000001 741.5800000000002 789.4000000000001 741.5800000000002 799.7400000000001 L 741.5800000000002 1202.8300000000002 L 818.1600000000002 1130.1100000000001 L 818.2000000000002 1130.0700000000002 L 921.1600000000002 1032.3000000000002 L 1127.0500000000002 836.7800000000002 L 1127.13 836.7100000000002 L 1230.0300000000002 738.9900000000001 L 1230.0900000000001 738.9300000000002 L 1324.3400000000001 649.4300000000002 C 1327.7600000000002 645.7000000000002 1332.68 643.3500000000001 1338.14 643.3500000000001 L 2193.4700000000003 643.3500000000001 L 2324.0200000000004 519.3800000000001 L 2324.1500000000005 519.2500000000001 L 2427.0400000000004 421.54000000000013 L 2427.1000000000004 421.4900000000001 L 2530.0400000000004 323.73000000000013 L 2530.0600000000004 323.71000000000015 L 2732.9200000000005 131.07000000000016 L 2732.9200000000005 18.70000000000016 C 2732.9200000000005 8.36000000000016 2741.3000000000006 -0.0199999999998397 2751.6400000000003 -0.0199999999998397 C 2761.9800000000005 -0.0199999999998397 2770.36 8.360000000000161 2770.36 18.70000000000016 L 2770.36 95.52000000000015 L 2865.5 5.170000000000158 C 2872.97 -1.9399999999998423 2884.79 -1.6399999999998416 2891.9 5.830000000000158 C 2899.01 13.300000000000157 2898.71 25.120000000000157 2891.2400000000002 32.23000000000016 L 2770.36 147.02000000000015 L 2770.36 360.41000000000014 L 3655.36 857.7300000000001 C 3661.55 860.7800000000001 3665.81 867.1600000000001 3665.81 874.5300000000001 L 3665.81 2030.6 L 4338.61 2030.6 L 4338.61 809.1799999999998 C 4338.61 798.8399999999998 4346.99 790.4599999999998 4357.33 790.4599999999998 C 4367.67 790.4599999999998 4376.05 798.8399999999998 4376.05 809.1799999999998 L 4376.05 2030.6 L 4580.18 2030.6 C 4590.52 2030.6 4598.900000000001 2038.98 4598.900000000001 2049.3199999999997 C 4598.900000000001 2059.66 4590.52 2068.0399999999995 4580.18 2068.0399999999995 L 4376.05 2068.0399999999995 L 4376.05 3391.629999999999 L 4587.14 3391.629999999999 C 4597.4800000000005 3391.629999999999 4605.860000000001 3400.0099999999993 4605.860000000001 3410.349999999999 C 4605.860000000001 3420.689999999999 4597.4800000000005 3429.069999999999 4587.14 3429.069999999999 L 4357.33 3429.069999999999 L 201 3429.069999999999 L 18.74000000000001 3429.069999999999 z M 741.57 2132.66 L 752.9200000000001 2146.7999999999997 L 828.72 2074.8199999999997 L 741.57 1966.2899999999997 L 741.57 2132.6699999999996 z M 741.57 1906.6399999999999 L 855.8900000000001 2049.0099999999998 L 886.3400000000001 2020.0899999999997 L 886.3400000000001 1920.5499999999997 L 741.5700000000002 1740.2499999999998 L 741.5700000000002 1906.6299999999997 z M 741.57 1680.62 L 886.34 1860.9199999999998 L 886.34 1694.54 L 741.57 1514.24 L 741.57 1680.62 z M 741.57 1454.6 L 886.34 1634.8999999999999 L 886.34 1468.52 L 741.57 1288.22 L 741.57 1454.6 z M 753.3000000000001 1243.1899999999998 L 886.34 1408.87 L 886.34 1305.62 C 886.34 1299.8 888.99 1294.6 893.1600000000001 1291.1699999999998 L 911.47 1273.7899999999997 L 829.1 1171.2099999999998 L 753.3000000000001 1243.1899999999998 z M 856.2700000000001 1145.4099999999999 L 938.6400000000001 1247.9899999999998 L 1014.44 1176.0099999999998 L 932.07 1073.4299999999998 L 856.2700000000001 1145.4099999999999 z M 959.2400000000001 1047.62 L 1041.6100000000001 1150.1999999999998 L 1117.41 1078.2199999999998 L 1035.04 975.6399999999998 L 959.24 1047.6199999999997 z M 1062.21 949.8399999999999 L 1144.58 1052.4199999999998 L 1220.3799999999999 980.4399999999998 L 1138.0099999999998 877.8599999999998 L 1062.2099999999998 949.8399999999998 z M 1165.18 852.06 L 1247.5500000000002 954.64 L 1323.3500000000001 882.66 L 1240.98 780.0799999999999 L 1165.18 852.06 z M 1268.15 754.28 L 1365.6200000000001 875.66 L 1499.22 875.66 L 1343.96 682.3 L 1268.16 754.28 z M 1390.64 680.81 L 1547.1000000000001 875.66 L 1680.7 875.66 L 1524.24 680.81 L 1390.64 680.81 z M 1572.13 680.81 L 1728.5900000000001 875.66 L 1862.19 875.66 L 1705.73 680.81 L 1572.13 680.81 z M 1753.6200000000001 680.81 L 1910.0800000000002 875.66 L 2043.68 875.66 L 1887.22 680.81 L 1753.6200000000001 680.81 z M 1935.1100000000001 680.81 L 2091.57 875.66 L 2193.46 875.66 L 2211.45 858.5699999999999 L 2068.71 680.8 L 1935.1100000000001 680.8 z M 2116.6000000000004 680.81 L 2238.6200000000003 832.77 L 2314.4200000000005 760.79 L 2232.0500000000006 658.2099999999999 L 2214.6600000000008 674.7299999999999 C 2211.2400000000007 678.4599999999999 2206.3200000000006 680.81 2200.8600000000006 680.81 L 2116.6000000000004 680.81 z M 2259.2300000000005 632.41 L 2341.6000000000004 734.99 L 2417.4000000000005 663.01 L 2335.0300000000007 560.43 L 2259.2300000000005 632.41 z M 2362.2000000000003 534.62 L 2444.57 637.2 L 2520.3700000000003 565.22 L 2438.0000000000005 462.64000000000004 L 2362.2000000000003 534.62 z M 2465.17 436.84000000000003 L 2547.54 539.4200000000001 L 2623.34 467.44000000000005 L 2540.9700000000003 364.86000000000007 L 2465.17 436.8400000000001 z M 2568.14 339.06000000000006 L 2650.5099999999998 441.64000000000004 L 2726.31 369.66 L 2643.94 267.08000000000004 L 2568.14 339.06000000000006 z M 2671.1099999999997 241.28000000000006 L 2732.8999999999996 318.24000000000007 L 2732.8999999999996 182.61000000000007 L 2671.1099999999997 241.29000000000008 z M 3745.37 2291.9300000000003 L 3665.79 2386.8300000000004 L 3665.79 2482.8800000000006 L 3825.92 2291.9300000000007 L 3745.37 2291.9300000000007 z M 3665.79 2328.6600000000003 L 3696.6 2291.9300000000003 L 3665.79 2291.9300000000003 L 3665.79 2328.6600000000003 z M 3874.7 2291.9300000000003 L 3665.79 2541.0400000000004 L 3665.79 2637.0900000000006 L 3955.25 2291.9300000000007 L 3874.7 2291.9300000000007 z M 4004.0299999999997 2291.9300000000003 L 3665.7999999999997 2695.2500000000005 L 3665.7999999999997 2791.3000000000006 L 4080.0499999999997 2297.330000000001 L 4080.0499999999997 2291.9300000000007 L 4004.0299999999997 2291.9300000000007 z M 4080.0499999999997 2355.4900000000002 L 3665.7999999999997 2849.46 L 3665.7999999999997 2945.51 L 4080.0499999999997 2451.54 L 4080.0499999999997 2355.49 z M 4080.0499999999997 2509.7000000000003 L 3665.7999999999997 3003.67 L 3665.7999999999997 3099.7200000000003 L 4080.0499999999997 2605.75 L 4080.0499999999997 2509.7 z M 4080.0499999999997 2663.9100000000003 L 3665.7999999999997 3157.88 L 3665.7999999999997 3171.7400000000002 L 3734.72 3171.7400000000002 L 4080.0499999999997 2759.96 L 4080.0499999999997 2663.91 z M 4080.0499999999997 2818.1200000000003 L 3783.4999999999995 3171.7400000000002 L 3864.0499999999997 3171.7400000000002 L 4080.0499999999997 2914.17 L 4080.0499999999997 2818.12 z M 4080.0499999999997 2972.3300000000004 L 3912.8199999999997 3171.7400000000002 L 3993.37 3171.7400000000002 L 4080.0499999999997 3068.38 L 4080.0499999999997 2972.33 z M 4080.0499999999997 3126.5400000000004 L 4042.1499999999996 3171.7400000000002 L 4080.0499999999997 3171.7400000000002 L 4080.0499999999997 3126.5400000000004 z M 736.6699999999996 2213.7400000000007 C 736.0799999999996 2214.390000000001 735.4399999999996 2214.9900000000007 734.7599999999996 2215.5500000000006 L 219.7099999999997 2704.6600000000008 L 219.7099999999997 3391.640000000001 L 4338.6 3391.640000000001 L 4338.6 2068.050000000001 L 3665.8 2068.050000000001 L 3665.8 2254.480000000001 L 4098.77 2254.480000000001 C 4109.110000000001 2254.480000000001 4117.490000000001 2262.860000000001 4117.490000000001 2273.2000000000007 L 4117.490000000001 3190.460000000001 C 4117.490000000001 3200.800000000001 4109.110000000001 3209.1800000000007 4098.77 3209.1800000000007 L 3647.0800000000004 3209.1800000000007 C 3636.7400000000002 3209.1800000000007 3628.3600000000006 3200.8000000000006 3628.3600000000006 3190.460000000001 L 3628.3600000000006 2291.920000000001 L 2770.3500000000004 2291.920000000001 L 2770.3500000000004 3190.460000000001 C 2770.3500000000004 3200.800000000001 2761.9700000000003 3209.1800000000007 2751.6300000000006 3209.1800000000007 L 1816.5600000000004 3209.1800000000007 C 1806.2200000000005 3209.1800000000007 1797.8400000000004 3200.8000000000006 1797.8400000000004 3190.460000000001 L 1797.8400000000004 2752.620000000001 C 1797.8400000000004 2742.2800000000007 1806.2200000000005 2733.900000000001 1816.5600000000004 2733.900000000001 L 2475.3700000000003 2733.900000000001 L 2475.3700000000003 2273.200000000001 C 2475.3700000000003 2262.860000000001 2483.7500000000005 2254.4800000000014 2494.09 2254.4800000000014 L 2732.9100000000003 2254.4800000000014 L 2732.9100000000003 414.8800000000015 L 2661.5400000000004 482.66000000000145 L 2661.4000000000005 482.79000000000144 L 2558.5200000000004 580.4800000000014 L 2558.4400000000005 580.5500000000014 L 2455.6000000000004 678.2100000000014 L 2455.4500000000003 678.3500000000014 L 2352.6400000000003 775.9800000000014 L 2352.4800000000005 776.1400000000014 L 2249.6900000000005 873.7500000000014 L 2249.5000000000005 873.9300000000013 L 2214.6700000000005 907.0100000000014 C 2211.2500000000005 910.7400000000014 2206.3300000000004 913.0900000000014 2200.8700000000003 913.0900000000014 L 1356.8500000000004 913.0900000000014 L 1356.8500000000004 2279.1500000000015 L 1356.7900000000004 2279.1500000000015 C 1356.7900000000004 2283.4800000000014 1355.3000000000004 2287.8300000000013 1352.2400000000005 2291.3600000000015 C 1345.5000000000005 2299.1500000000015 1333.7100000000005 2300.0000000000014 1325.9200000000005 2293.2600000000016 L 1120.8100000000004 2116.1200000000017 L 918.8700000000003 2307.8900000000017 C 918.2800000000003 2308.540000000002 917.6400000000003 2309.1400000000017 916.9600000000004 2309.7000000000016 L 450.49000000000035 2752.6800000000017 L 450.49000000000035 3171.7400000000016 L 1338.1300000000003 3171.7400000000016 C 1348.4700000000003 3171.7400000000016 1356.8500000000004 3180.1200000000017 1356.8500000000004 3190.4600000000014 C 1356.8500000000004 3200.8000000000015 1348.4700000000003 3209.180000000001 1338.1300000000003 3209.180000000001 L 431.7700000000003 3209.180000000001 C 421.43000000000035 3209.180000000001 413.0500000000003 3200.800000000001 413.0500000000003 3190.4600000000014 L 413.0500000000003 2744.7100000000014 C 413.0500000000003 2738.8900000000012 415.7100000000003 2733.6900000000014 419.8700000000003 2730.2600000000016 L 886.3400000000004 2287.2800000000016 L 886.3400000000004 2071.5900000000015 L 736.6500000000003 2213.7400000000016 z M 923.7999999999996 1313.5900000000006 L 923.7999999999996 2251.7200000000007 L 1107.3499999999997 2077.4100000000008 C 1114.5199999999998 2070.5900000000006 1125.6999999999996 2070.5900000000006 1132.8699999999997 2077.2000000000007 L 1319.4199999999996 2238.310000000001 L 1319.4199999999996 937.8800000000008 L 1258.5199999999995 995.7100000000008 L 1258.4899999999996 995.7400000000008 L 1155.5499999999995 1093.4900000000007 L 1155.5199999999995 1093.5200000000007 L 1052.5999999999995 1191.2600000000007 L 1052.5399999999995 1191.3100000000006 L 949.5899999999995 1289.0700000000006 L 949.5799999999995 1289.0800000000006 L 923.7899999999995 1313.5700000000006 z M 3867.87 1801.7000000000007 C 3867.87 1812.0400000000006 3859.49 1820.4200000000008 3849.15 1820.4200000000008 C 3838.81 1820.4200000000008 3830.4300000000003 1812.0400000000006 3830.4300000000003 1801.7000000000007 L 3830.4300000000003 750.7600000000007 L 2944.5600000000004 252.95000000000067 C 2935.5600000000004 247.90000000000066 2932.3500000000004 236.51000000000067 2937.3900000000003 227.50000000000068 C 2942.4400000000005 218.50000000000068 2953.8300000000004 215.29000000000067 2962.84 220.3300000000007 L 3857.42 723.0300000000007 C 3863.61 726.0800000000006 3867.87 732.4600000000006 3867.87 739.8300000000006 L 3867.87 1801.6900000000005 z M 2770.35 403.3200000000006 L 2770.35 2254.4800000000005 L 3628.3599999999997 2254.4800000000005 L 3628.3599999999997 2049.3400000000006 L 3628.3599999999997 885.4800000000007 L 2770.3499999999995 403.3200000000007 z M 2732.91 3171.7400000000007 L 2732.91 2291.9200000000005 L 2512.81 2291.9200000000005 L 2512.81 2752.6200000000003 C 2512.81 2762.9600000000005 2504.43 2771.34 2494.09 2771.34 L 1835.2800000000002 2771.34 L 1835.2800000000002 3171.7400000000002 L 2732.9100000000003 3171.7400000000002 z" stroke-linecap="round" />
</g>
</g>
</g>
<g transform="matrix(1.9211538461538462 0 0 1.9211538461538462 640.3347871039234 265.3248939340964)" id="text-logo"  >
<g style=""  paint-order="stroke"   >
		<g transform="matrix(1 0 0 1 0 0)" id="text-logo-path-0"  >
<path style="stroke: rgb(255,255,255); stroke-width: 0; stroke-dasharray: none; stroke-linecap: butt; stroke-dashoffset: 0; stroke-linejoin: miter; stroke-miterlimit: 4; fill: rgb(188,188,188); fill-rule: nonzero; opacity: 1;"  paint-order="stroke"  transform=" translate(-86.675, 26.495)" d="M 27.25 0.4 C 32.21 0.4 36.68 -0.72 40.44 -2.72 L 45.8 3.36 L 53.79 3.36 L 45.24 -6.31 C 50.27 -11.19 53.15 -18.62 53.15 -28.05 C 53.15 -45 43.4 -56.35 27.25 -56.35 C 11.43 -56.35 1.12 -45.88 1.12 -28.05 C 1.12 -11.03 11.03 0.4 27.25 0.4 Z M 8.31 -28.05 C 8.31 -41.88 15.74 -50.03 27.25 -50.03 C 38.92 -50.03 45.96 -41.24 45.96 -28.05 C 45.96 -21.02 44.04 -15.43 40.6 -11.59 L 34.37 -18.7 L 26.37 -18.7 L 35.89 -7.91 C 33.41 -6.63 30.45 -5.91 27.25 -5.91 C 15.43 -5.91 8.31 -14.79 8.31 -28.05 Z M 70.97 -51.15 L 70.97 -4.8 L 66.98 -4 L 66.98 0 L 82.16 0 L 82.16 -4 L 78.16 -4.8 L 78.16 -25.58 L 83.28 -25.58 L 101.18 -4.8 L 97.35 -4 L 97.35 0 L 114.13 0 L 114.13 -4 L 109.17 -4.8 L 88.55 -28.61 L 107.02 -51.15 L 111.73 -51.95 L 111.73 -55.95 L 94.95 -55.95 L 94.95 -51.95 L 99.02 -51.15 L 82.64 -31.17 L 78.16 -31.17 L 78.16 -51.15 L 82.16 -51.95 L 82.16 -55.95 L 66.98 -55.95 L 66.98 -51.95 Z M 170.79 -50.75 C 166.64 -54.43 160.4 -56.35 152.89 -56.35 C 137.07 -56.35 126.76 -45.88 126.76 -28.05 C 126.76 -11.03 136.67 0.4 152.89 0.4 C 160.96 0.4 167.52 -2.4 172.23 -6.87 L 168.88 -10.95 C 165.12 -7.43 159.29 -5.91 152.89 -5.91 C 141.06 -5.91 133.95 -14.79 133.95 -28.05 C 133.95 -41.88 141.38 -50.03 152.89 -50.03 C 158.17 -50.03 162.56 -48.91 166 -46.36 L 166.8 -40.76 L 170.79 -40.76 Z" stroke-linecap="round" />
</g>
</g>
</g>
<g transform="matrix(1.9211538461538462 0 0 1.9211538461538462 628.4431371560116 737.1363913099691)" id="tagline-91bde206-de9d-46cd-b372-6d92c2818ebe-logo"  >
<g style=""  paint-order="stroke"   >
		<g transform="matrix(1 0 0 1 0 0)" id="tagline-91bde206-de9d-46cd-b372-6d92c2818ebe-logo-path-0"  >
<path style="stroke: rgb(255,255,255); stroke-width: 0; stroke-dasharray: none; stroke-linecap: butt; stroke-dashoffset: 0; stroke-linejoin: miter; stroke-miterlimit: 4; fill: rgb(188,188,188); fill-rule: nonzero; opacity: 1;"  paint-order="stroke"  transform=" translate(-98.83999999999999, 7.855)" d="M 8.08 0.12 C 9.54 0.12 10.87 -0.21 11.98 -0.81 L 13.57 0.99 L 15.94 0.99 L 13.4 -1.87 C 14.9 -3.32 15.75 -5.52 15.75 -8.31 C 15.75 -13.33 12.86 -16.7 8.08 -16.7 C 3.39 -16.7 0.33 -13.59 0.33 -8.31 C 0.33 -3.27 3.27 0.12 8.08 0.12 Z M 2.46 -8.31 C 2.46 -12.41 4.67 -14.83 8.08 -14.83 C 11.53 -14.83 13.62 -12.22 13.62 -8.31 C 13.62 -6.23 13.05 -4.57 12.03 -3.43 L 10.18 -5.54 L 7.82 -5.54 L 10.63 -2.34 C 9.9 -1.97 9.02 -1.75 8.08 -1.75 C 4.57 -1.75 2.46 -4.38 2.46 -8.31 Z M 30.24 0.12 C 34.13 0.12 36.71 -2.32 36.71 -6.66 L 36.71 -15.16 L 37.89 -15.39 L 37.89 -16.58 L 33.39 -16.58 L 33.39 -15.39 L 34.58 -15.16 L 34.58 -6.66 C 34.58 -3.51 32.85 -1.75 30.24 -1.75 C 27.5 -1.75 25.84 -3.67 25.84 -6.66 L 25.81 -15.16 L 27 -15.39 L 27 -16.58 L 22.5 -16.58 L 22.5 -15.39 L 23.68 -15.16 L 23.71 -6.66 C 23.71 -2.56 26.19 0.12 30.24 0.12 Z M 46.89 -15.16 L 46.89 -1.42 L 45.71 -1.18 L 45.71 0 L 50.21 0 L 50.21 -1.18 L 49.02 -1.42 L 49.02 -15.16 L 50.21 -15.39 L 50.21 -16.58 L 45.71 -16.58 L 45.71 -15.39 Z M 59.52 -15.16 L 59.52 -1.42 L 58.33 -1.18 L 58.33 0 L 62.83 0 L 62.83 -1.18 L 61.65 -1.42 L 61.65 -13.33 L 70.41 0 L 72.54 0 L 72.54 -15.16 L 73.73 -15.39 L 73.73 -16.58 L 69.23 -16.58 L 69.23 -15.39 L 70.41 -15.16 L 70.41 -3.24 L 61.65 -16.58 L 58.33 -16.58 L 58.33 -15.39 Z M 82.7 -15.16 L 82.7 -1.42 L 81.52 -1.18 L 81.52 0 L 86.02 0 L 86.02 -1.18 L 84.83 -1.42 L 84.83 -13.33 L 93.6 0 L 95.73 0 L 95.73 -15.16 L 96.91 -15.39 L 96.91 -16.58 L 92.41 -16.58 L 92.41 -15.39 L 93.6 -15.16 L 93.6 -3.24 L 84.83 -16.58 L 81.52 -16.58 L 81.52 -15.39 Z M 117.21 -15.16 L 117.21 -1.42 L 116.02 -1.18 L 116.02 0 L 120.52 0 L 120.52 -1.18 L 119.34 -1.42 L 119.34 -7.58 L 120.86 -7.58 L 126.16 -1.42 L 125.02 -1.18 L 125.02 0 L 130 0 L 130 -1.18 L 128.53 -1.42 L 122.42 -8.48 L 127.89 -15.16 L 129.29 -15.39 L 129.29 -16.58 L 124.31 -16.58 L 124.31 -15.39 L 125.52 -15.16 L 120.67 -9.24 L 119.34 -9.24 L 119.34 -15.16 L 120.52 -15.39 L 120.52 -16.58 L 116.02 -16.58 L 116.02 -15.39 Z M 137.81 0 L 142.31 0 L 142.31 -1.18 L 141.3 -1.42 L 142.53 -4.74 L 149.68 -4.74 L 150.91 -1.42 L 149.89 -1.18 L 149.89 0 L 154.39 0 L 154.39 -1.18 L 153.02 -1.42 L 147.17 -16.58 L 145.04 -16.58 L 139.19 -1.42 L 137.81 -1.18 Z M 143.14 -6.39 L 146.1 -14.35 L 149.06 -6.39 Z M 163.56 -15.16 L 163.56 -1.42 L 162.37 -1.18 L 162.37 0 L 166.87 0 L 166.87 -1.18 L 165.69 -1.42 L 165.69 -13.33 L 174.45 0 L 176.58 0 L 176.58 -15.16 L 177.77 -15.39 L 177.77 -16.58 L 173.27 -16.58 L 173.27 -15.39 L 174.45 -15.16 L 174.45 -3.24 L 165.69 -16.58 L 162.37 -16.58 L 162.37 -15.39 Z M 186.74 -15.16 L 186.74 -1.42 L 185.56 -1.18 L 185.56 0 L 197.35 0 L 197.35 -3.2 L 196.17 -3.2 L 195.93 -1.66 L 188.88 -1.66 L 188.88 -7.82 L 194.51 -7.82 L 194.51 -9.47 L 188.88 -9.47 L 188.88 -14.92 L 195.93 -14.92 L 196.17 -13.38 L 197.35 -13.38 L 197.35 -16.58 L 185.56 -16.58 L 185.56 -15.39 Z" stroke-linecap="round" />
</g>
</g>
</g>
<g transform="matrix(1.9211538461538462 0 0 1.9211538461538462 640.0909989200316 798.7641581218363)" id="tagline-7df16357-5199-43cc-9aba-35110f9e6bcc-logo"  >
<g style=""  paint-order="stroke"   >
		<g transform="matrix(1 0 0 1 0 0)" id="tagline-7df16357-5199-43cc-9aba-35110f9e6bcc-logo-path-0"  >
<path style="stroke: rgb(255,255,255); stroke-width: 0; stroke-dasharray: none; stroke-linecap: butt; stroke-dashoffset: 0; stroke-linejoin: miter; stroke-miterlimit: 4; fill: rgb(188,188,188); fill-rule: nonzero; opacity: 1;"  paint-order="stroke"  transform=" translate(-121.52999999999999, 8.29)" d="M 13.57 -15.04 C 12.34 -16.13 10.49 -16.7 8.27 -16.7 C 3.58 -16.7 0.52 -13.59 0.52 -8.31 C 0.52 -3.27 3.46 0.12 8.27 0.12 C 10.66 0.12 12.6 -0.71 14 -2.04 L 13 -3.24 C 11.89 -2.2 10.16 -1.75 8.27 -1.75 C 4.76 -1.75 2.65 -4.38 2.65 -8.31 C 2.65 -12.41 4.86 -14.83 8.27 -14.83 C 9.83 -14.83 11.13 -14.49 12.15 -13.74 L 12.39 -12.08 L 13.57 -12.08 Z M 29.18 0.12 C 33.8 0.12 36.85 -3.03 36.85 -8.31 C 36.85 -13.33 33.96 -16.7 29.18 -16.7 C 24.49 -16.7 21.43 -13.59 21.43 -8.31 C 21.43 -3.27 24.37 0.12 29.18 0.12 Z M 23.56 -8.31 C 23.56 -12.41 25.77 -14.83 29.18 -14.83 C 32.64 -14.83 34.72 -12.22 34.72 -8.31 C 34.72 -4.22 32.52 -1.75 29.18 -1.75 C 25.67 -1.75 23.56 -4.38 23.56 -8.31 Z M 45.76 -15.16 L 45.76 -1.42 L 44.57 -1.18 L 44.57 0 L 49.07 0 L 49.07 -1.18 L 47.89 -1.42 L 47.89 -13.33 L 56.65 0 L 58.78 0 L 58.78 -15.16 L 59.97 -15.39 L 59.97 -16.58 L 55.47 -16.58 L 55.47 -15.39 L 56.65 -15.16 L 56.65 -3.24 L 47.89 -16.58 L 44.57 -16.58 L 44.57 -15.39 Z M 73.16 0.12 C 75.62 0.12 78.42 -1.44 78.42 -4.64 C 78.42 -7.51 75.86 -8.64 73.82 -9.45 C 71.59 -10.33 69.91 -10.8 69.91 -12.48 C 69.91 -13.83 70.58 -14.83 72.83 -14.83 C 74.39 -14.83 75.69 -14.49 76.71 -13.74 L 76.95 -12.08 L 78.13 -12.08 L 78.13 -15.04 C 76.9 -16.13 75.05 -16.7 72.83 -16.7 C 69.32 -16.7 67.78 -14.54 67.78 -12.48 C 67.78 -9.43 70.84 -8.57 73.02 -7.7 C 74.86 -6.96 76.28 -6.37 76.28 -4.64 C 76.28 -2.58 74.84 -1.75 73.16 -1.75 C 71.59 -1.75 70.29 -2.08 69.27 -2.84 L 69.04 -4.5 L 67.85 -4.5 L 67.85 -1.54 C 69.08 -0.45 70.93 0.12 73.16 0.12 Z M 98.57 -16.58 L 86.11 -16.58 L 86.11 -13.38 L 87.3 -13.38 L 87.53 -14.92 L 91.28 -14.92 L 91.28 -1.42 L 90.09 -1.18 L 90.09 0 L 94.59 0 L 94.59 -1.18 L 93.41 -1.42 L 93.41 -14.92 L 97.15 -14.92 L 97.39 -13.38 L 98.57 -13.38 Z M 106.36 0 L 110.86 0 L 110.86 -1.18 L 109.68 -1.42 L 109.68 -7.11 L 112.43 -7.11 C 112.73 -7.11 113.02 -7.11 113.3 -7.13 L 117.49 0 L 120.57 0 L 120.57 -1.18 L 119.03 -1.42 L 115.46 -7.48 C 117.66 -8.15 118.68 -9.64 118.68 -11.87 C 118.68 -14.78 116.88 -16.58 112.43 -16.58 L 106.36 -16.58 L 106.36 -15.39 L 107.55 -15.16 L 107.55 -1.42 L 106.36 -1.18 Z M 109.68 -8.76 L 109.68 -14.92 L 112.43 -14.92 C 115.46 -14.92 116.55 -13.83 116.55 -11.87 C 116.55 -9.92 115.53 -8.76 112.43 -8.76 Z M 135.3 0.12 C 139.19 0.12 141.77 -2.32 141.77 -6.66 L 141.77 -15.16 L 142.95 -15.39 L 142.95 -16.58 L 138.45 -16.58 L 138.45 -15.39 L 139.64 -15.16 L 139.64 -6.66 C 139.64 -3.51 137.91 -1.75 135.3 -1.75 C 132.56 -1.75 130.9 -3.67 130.9 -6.66 L 130.87 -15.16 L 132.06 -15.39 L 132.06 -16.58 L 127.56 -16.58 L 127.56 -15.39 L 128.74 -15.16 L 128.77 -6.66 C 128.77 -2.56 131.25 0.12 135.3 0.12 Z M 163.53 -15.04 C 162.3 -16.13 160.46 -16.7 158.23 -16.7 C 153.54 -16.7 150.48 -13.59 150.48 -8.31 C 150.48 -3.27 153.42 0.12 158.23 0.12 C 160.62 0.12 162.56 -0.71 163.96 -2.04 L 162.97 -3.24 C 161.85 -2.2 160.12 -1.75 158.23 -1.75 C 154.72 -1.75 152.62 -4.38 152.62 -8.31 C 152.62 -12.41 154.82 -14.83 158.23 -14.83 C 159.79 -14.83 161.09 -14.49 162.11 -13.74 L 162.35 -12.08 L 163.53 -12.08 Z M 183.85 -16.58 L 171.4 -16.58 L 171.4 -13.38 L 172.58 -13.38 L 172.82 -14.92 L 176.56 -14.92 L 176.56 -1.42 L 175.38 -1.18 L 175.38 0 L 179.88 0 L 179.88 -1.18 L 178.69 -1.42 L 178.69 -14.92 L 182.43 -14.92 L 182.67 -13.38 L 183.85 -13.38 Z M 192.85 -15.16 L 192.85 -1.42 L 191.67 -1.18 L 191.67 0 L 196.17 0 L 196.17 -1.18 L 194.99 -1.42 L 194.99 -15.16 L 196.17 -15.39 L 196.17 -16.58 L 191.67 -16.58 L 191.67 -15.39 Z M 211.75 0.12 C 216.37 0.12 219.43 -3.03 219.43 -8.31 C 219.43 -13.33 216.54 -16.7 211.75 -16.7 C 207.06 -16.7 204.01 -13.59 204.01 -8.31 C 204.01 -3.27 206.95 0.12 211.75 0.12 Z M 206.14 -8.31 C 206.14 -12.41 208.34 -14.83 211.75 -14.83 C 215.21 -14.83 217.3 -12.22 217.3 -8.31 C 217.3 -4.22 215.09 -1.75 211.75 -1.75 C 208.25 -1.75 206.14 -4.38 206.14 -8.31 Z M 228.33 -15.16 L 228.33 -1.42 L 227.15 -1.18 L 227.15 0 L 231.65 0 L 231.65 -1.18 L 230.46 -1.42 L 230.46 -13.33 L 239.23 0 L 241.36 0 L 241.36 -15.16 L 242.54 -15.39 L 242.54 -16.58 L 238.04 -16.58 L 238.04 -15.39 L 239.23 -15.16 L 239.23 -3.24 L 230.46 -16.58 L 227.15 -16.58 L 227.15 -15.39 Z" stroke-linecap="round" />
</g>
</g>
</g>
<g transform="matrix(1.9240950026635266 0 0 1.9240950026635268 640.0000000000001 334.06244397827584)" id="shape-472f1eef-dd57-483e-8522-7870719fba23"  >
<g style=""  paint-order="stroke"   >
		<g transform="matrix(1 0 0 1 0 0)" id="line-6"  >
<path style="stroke: none; stroke-width: 1; stroke-dasharray: none; stroke-linecap: butt; stroke-dashoffset: 0; stroke-linejoin: miter; stroke-miterlimit: 4; fill: rgb(182,182,184); fill-rule: nonzero; opacity: 1;"  paint-order="stroke"  transform=" translate(-100, -1.5580574021507687)" d="M 150 0.36 C 133.33 0.11 116.67 0 100 0 C 83.33 0 66.67 0.11 50 0.36 C 33.33 0.61 16.67 1 0 1.55 Q 25 2.44 50 2.74 C 66.67 2.99 83.33 3.0700000000000003 100 3.1100000000000003 C 116.67 3.1500000000000004 133.32999999999998 2.99 150 2.74 C 166.67000000000002 2.49 183.32999999999998 2.14 200 1.5500000000000003 Q 175 0.68 150 0.36 Z" stroke-linecap="round" />
</g>
</g>
</g>
<g transform="matrix(2.623782985895816 0 0 2.623782985895816 640.0000000000001 839.9141105656836)" id="shape-ee918b22-454b-4a82-a9ee-7654206b618f"  >
<g style=""  paint-order="stroke"   >
		<g transform="matrix(1 0 0 1 0 0)" id="line-6"  >
<path style="stroke: none; stroke-width: 1; stroke-dasharray: none; stroke-linecap: butt; stroke-dashoffset: 0; stroke-linejoin: miter; stroke-miterlimit: 4; fill: rgb(182,182,184); fill-rule: nonzero; opacity: 1;"  paint-order="stroke"  transform=" translate(-100, -1.5580574021507687)" d="M 150 0.36 C 133.33 0.11 116.67 0 100 0 C 83.33 0 66.67 0.11 50 0.36 C 33.33 0.61 16.67 1 0 1.55 Q 25 2.44 50 2.74 C 66.67 2.99 83.33 3.0700000000000003 100 3.1100000000000003 C 116.67 3.1500000000000004 133.32999999999998 2.99 150 2.74 C 166.67000000000002 2.49 183.32999999999998 2.14 200 1.5500000000000003 Q 175 0.68 150 0.36 Z" stroke-linecap="round" />
</g>
</g>
</g>
</svg>